<svg width="68" height="68" viewBox="0 0 68 68" fill="none" xmlns="http://www.w3.org/2000/svg">
<g clip-path="url(#clip0_323_5)">
<path d="M51.4143 3.23951C33.7232 0.00140928 5.80454 4.04955 1.6582 31.5728" stroke="#D53987" stroke-width="3.07317"/>
<path d="M24.0977 65.8435C42.0443 64.5014 67.9384 53.5374 64.6462 25.9043" stroke="#D53987" stroke-width="3.07317"/>
<path d="M4.97656 45.332C6.35867 52.0781 15.757 64.4368 42.2936 59.9035" stroke="#D53987" stroke-width="1.53659"/>
<path d="M64.2428 30.9214C64.6964 24.056 58.8948 9.74376 32.0605 7.41797" stroke="#D53987" stroke-width="1.53659"/>
<path d="M39.4776 23.176C39.5096 22.92 39.5416 22.76 39.5416 22.696C39.5416 22.056 39.2216 21.736 38.5496 21.736C38.0696 21.736 36.3736 22.28 34.4856 22.632C33.4296 22.856 31.7976 23.016 30.8696 23.144C30.4216 23.208 30.1016 23.272 29.8776 23.368C29.4616 23.56 29.2376 24.104 29.2376 24.968C29.2376 25.448 29.4936 25.704 30.0056 25.704C30.2296 25.704 30.6136 25.672 31.1576 25.64C31.7016 25.576 32.1496 25.544 32.4696 25.544C33.2376 25.544 33.4936 25.736 33.4936 26.344C33.4936 26.632 33.3976 27.24 33.2056 28.232L30.0376 43.848C30.0056 44.072 29.9736 44.2 29.9736 44.296C29.9736 44.776 30.2296 45 30.7416 45H34.2296C34.7736 45 35.1256 44.744 35.2216 44.232L39.4776 23.176Z" fill="#D53987"/>
</g>
<defs>
<clipPath id="clip0_323_5">
<rect width="68" height="68" fill="white"/>
</clipPath>
</defs>
</svg>
