<svg width="24" height="24" viewBox="0 0 24 24" fill="none" xmlns="http://www.w3.org/2000/svg">
<path d="M12.0007 0.333008C18.4439 0.333008 23.6673 5.55635 23.6673 11.9997C23.6673 18.4429 18.4439 23.6663 12.0007 23.6663C5.55733 23.6663 0.333984 18.4429 0.333984 11.9997C0.333984 5.55635 5.55733 0.333008 12.0007 0.333008ZM15.757 8.46429L10.5423 13.6789L8.24437 11.381C7.90266 11.0393 7.34864 11.0393 7.00693 11.381C6.66523 11.7227 6.66523 12.2766 7.00693 12.6184L9.92363 15.535C10.2654 15.8767 10.8193 15.8767 11.161 15.535L16.9943 9.70169C17.3361 9.36002 17.3361 8.80599 16.9943 8.46429C16.6526 8.12259 16.0987 8.12259 15.757 8.46429Z" fill="#4DB881"/>
</svg>
