<svg width="686" height="648" viewBox="0 0 686 648" fill="none" xmlns="http://www.w3.org/2000/svg">
<path d="M456.158 673.545C448.272 675.658 441.457 677.154 437.895 677.944C432.794 679.063 420.976 681.281 412.899 682.373C404.821 683.466 404.936 683.435 393.492 684.584C391.346 684.808 388.794 684.977 386.299 685.13L383.037 685.344C368.111 686.195 353.148 686.135 338.229 685.164C329.508 684.47 319.195 683.378 311.909 682.423C305.77 681.594 297.67 680.218 291.794 678.988C282.704 677.073 271.135 674.214 263.117 671.991C255.1 669.768 245.934 666.801 239.711 664.428C222.053 658.045 204.91 650.321 188.43 641.322C180.6 637.029 171.621 631.682 165.521 627.688C158.248 622.935 147.875 615.694 140.195 609.731C124.878 597.856 110.53 584.781 97.2875 570.63C84.8356 556.723 73.1852 542.118 62.393 526.886C56.4619 518.341 50.9975 509.48 46.024 500.344C43.1404 495.199 40.0038 488.803 36.9727 482.646C35.607 479.857 34.2914 477.178 33.0569 474.726C28.4572 465.183 24.4803 455.353 21.1512 445.297L20.6426 443.784C16.7411 432.876 13.4273 421.767 10.7154 410.505C10.247 408.218 9.7026 405.725 9.1376 403.155C7.59861 396.103 5.86473 388.093 4.83317 381.627C3.0189 371.134 1.77953 360.549 1.12057 349.921C1.06677 347.873 0.930461 345.518 0.832651 343.152C0.489056 335.945 0.119939 327.797 0.199282 321.322C0.330807 311.348 0.981103 298.617 1.84887 289.622C2.71664 280.626 4.1939 269.674 5.61209 261.809C6.66329 255.96 9.47266 241.207 12.6304 230.217C17.4755 213.29 25.4247 191.943 30.7491 178.805C33.627 171.848 38.0525 163.281 41.9842 155.794C43.3923 153.355 44.5504 150.983 45.6315 148.631C49.7453 140.873 54.2807 133.346 59.2172 126.084C65.6786 116.496 74.8397 104.289 81.1628 95.9556C87.1148 88.3078 93.5119 81.017 100.321 74.121C109.007 65.2985 121.234 53.8367 130.723 45.6239C136.327 40.7615 145.083 34.0442 154.154 27.6549C161.171 22.6818 170.523 16.6501 177.388 12.6458C188.557 5.99543 200.075 -0.0504787 211.893 -5.46584C218.133 -8.41617 230.744 -13.6717 240.219 -17.0145C246.947 -19.374 252.245 -21.1442 255.99 -22.2507C266.42 -25.3342 267.454 -25.6318 278.726 -28.343C280.208 -28.7399 293.741 -32.0157 311.322 -34.4995C321.649 -35.9678 330.38 -36.699 330.747 -36.7149C334.037 -36.9779 338.683 -37.3361 342.197 -37.5353C344.779 -37.6704 347.965 -37.7819 350.926 -37.8124L354.479 -37.9397C358.298 -38.0763 363.641 -38.0646 370.339 -37.9211C374.036 -37.819 379.17 -37.5864 385.997 -37.189C394.851 -36.6953 405.202 -35.6131 412.361 -34.4387C417.666 -33.5713 423.563 -32.4916 429.423 -31.3195C437.293 -30.0056 445.107 -28.3398 452.863 -26.3219L453.354 -26.1852C465.447 -23.0141 477.37 -19.2235 489.074 -14.8285C497.265 -11.4975 509.625 -6.45864 518.516 -2.28424C521.842 -0.721721 533.354 4.771 541.853 10.0197L543.454 10.9928C551.268 15.765 561 21.6934 568.257 26.6151C574.541 30.9106 583.284 37.4547 590.018 42.8876C596.751 48.3205 606.064 56.6087 613.137 63.2292C620.668 70.4072 627.875 77.837 632.4 83.1814C637.885 89.6498 646.189 99.4043 651.9 106.946C656.214 112.656 662.21 121.339 667.938 130.175C677.24 144.691 685.445 159.881 692.485 175.619C700.276 193.562 706.814 212.024 712.052 230.871C714.527 240.105 717.257 252.755 718.949 262.302C720.118 268.896 721.104 277.271 721.973 284.667C722.247 286.924 722.501 289.103 722.748 291.099C723.789 301.578 724.29 312.104 724.25 322.635C724.347 330.691 723.906 341.82 723.205 350.977C722.505 360.134 721.108 372.158 719.48 382.161C718.571 387.848 717.086 394.617 715.67 401.182C715.042 404.072 714.427 406.855 713.909 409.386C711.434 419.786 708.394 430.044 704.804 440.115C702.997 445.527 700.457 451.898 698.005 458.06C696.958 460.691 695.962 463.206 695.078 465.525C690.769 475.833 685.894 485.895 680.475 495.665C676.275 503.533 671.02 512.467 667.11 518.421C661.397 527.107 652.992 538.906 645.71 548.506C640.715 555.103 633.604 563.111 629.82 567.301C625.361 572.207 619.263 578.377 614.336 583.305L612.84 584.799C602.982 594.561 592.45 603.618 581.322 611.904C571.798 618.91 564.507 624.018 559.065 627.559C552.232 631.988 542.738 637.645 535.4 641.652C527.759 645.761 518.732 650.387 512.351 653.272L511.482 653.649C508.304 655.098 504.344 656.86 501.259 658.12C495.684 660.397 488.465 663.156 483.981 664.811C483.596 664.915 474.289 668.419 460.592 672.316L456.158 673.545ZM268.222 -23.92C264.952 -23.0438 262.047 -22.2655 256.41 -20.5282C252.685 -19.427 247.405 -17.6619 240.716 -15.3127C231.299 -11.9853 218.721 -6.75935 212.52 -3.81933C200.765 1.5863 189.302 7.60345 178.177 14.2074C171.306 18.1104 162.033 24.2036 155.029 29.1523C146.016 35.5261 137.278 42.1562 131.737 47.0224C122.267 55.23 110.088 66.6379 101.415 75.436C94.6402 82.2515 88.2771 89.4646 82.3597 97.037C76.0366 105.37 66.9088 117.548 60.4615 127.111C55.5596 134.323 51.0588 141.8 46.9795 149.507L43.313 156.675C39.3902 164.118 34.9722 172.56 32.1431 179.545C26.8329 192.658 18.9272 214.014 14.0653 230.802C10.9357 241.743 8.13529 256.453 7.09302 262.258C5.66829 270.021 4.20371 280.867 3.32186 289.887C2.44001 298.907 1.80244 311.531 1.67984 321.461C1.60942 327.893 1.97853 336.041 2.31182 343.21C2.42887 345.57 2.53044 347.873 2.59971 349.978C3.26242 360.553 4.49441 371.084 6.29032 381.526C7.31535 387.89 9.0389 395.861 10.5727 402.894C11.1429 405.483 11.6873 407.977 12.1557 410.264C14.8557 421.467 18.1475 432.519 22.0173 443.374L22.5258 444.887C25.8475 454.876 29.8071 464.642 34.38 474.124C35.6094 476.557 36.9301 479.255 38.2959 482.044C41.3077 488.206 44.434 494.564 47.3073 499.67C52.2476 508.753 57.6772 517.561 63.5722 526.055C73.0283 539.109 86.7393 557.27 98.3434 569.646C111.527 583.76 125.828 596.787 141.109 608.6C148.633 614.522 159.053 621.709 166.302 626.448C172.354 630.414 181.308 635.746 189.095 640.031C205.521 648.978 222.6 656.67 240.185 663.043C246.379 665.383 255.525 668.355 263.475 670.555C271.424 672.755 283.076 675.612 292.141 677.513C297.998 678.748 306.035 680.121 312.15 680.936C319.373 681.887 329.681 682.96 338.383 683.659C353.23 684.642 368.122 684.721 382.979 683.895L386.26 683.676C388.73 683.509 391.283 683.34 393.39 683.126C404.738 682.003 404.738 682.003 412.739 680.932C420.74 679.86 432.49 677.701 437.577 676.524C441.816 675.573 450.576 673.639 460.273 670.896C473.912 667.015 483.178 663.583 483.552 663.442C488.012 661.773 495.217 659.038 500.791 656.761C503.838 655.511 507.793 653.73 510.957 652.305L511.825 651.928C518.168 649.053 527.178 644.515 534.784 640.353C542.059 636.342 551.544 630.729 558.339 626.31C563.748 622.799 571.019 617.696 580.529 610.714C591.59 602.464 602.066 593.457 611.88 583.757L613.357 582.268C618.226 577.356 624.368 571.194 628.813 566.313C631.828 562.948 639.462 554.428 644.613 547.646C651.882 538.069 660.248 526.281 665.952 517.639C669.847 511.709 675.074 502.823 679.247 495.004C684.618 485.292 689.439 475.285 693.688 465.031C694.577 462.731 695.587 460.193 696.64 457.581C699.111 451.413 701.535 445.073 703.391 439.689C706.903 429.69 709.88 419.511 712.312 409.195C712.83 406.665 713.44 403.862 714.067 400.972C715.483 394.407 716.964 387.701 717.864 382.058C719.472 371.977 720.929 359.793 721.602 350.994C722.275 342.195 722.67 330.667 722.614 322.764C722.66 312.293 722.168 301.827 721.139 291.406C720.893 289.41 720.634 287.212 720.364 284.975C719.501 277.598 718.495 269.228 717.337 262.672C715.655 253.164 712.883 240.587 710.471 231.357C705.234 212.549 698.693 194.129 690.896 176.23C683.927 160.559 675.794 145.432 666.565 130.976C660.852 122.197 654.87 113.491 650.572 107.838C644.891 100.329 636.611 90.5891 631.141 84.1784C626.656 78.9058 619.493 71.4849 611.972 64.3454C605.02 57.7132 595.768 49.5738 588.975 44.0742C582.182 38.5747 573.552 32.1446 567.297 27.8825C560.104 22.9645 550.396 17.0502 542.606 12.2921L541.005 11.319C532.576 6.17542 521.137 0.724958 517.83 -0.842719C508.969 -4.98379 496.628 -10.0278 488.462 -13.3448C476.798 -17.7108 464.921 -21.4859 452.877 -24.6554L452.435 -24.7639C445.85 -26.2572 437.544 -28.0935 429.121 -29.754C377.678 -38.3826 324.307 -31.8964 273.41 -10.7121L273.256 -10.6709L272.682 -12.043C312.417 -28.9301 355.442 -36.6604 398.571 -34.6611C394.332 -35.0923 389.93 -35.4387 385.926 -35.6854C379.099 -36.0828 373.984 -36.3205 370.311 -36.4086C363.632 -36.5572 358.333 -36.56 354.534 -36.4285L350.98 -36.3012C348.059 -36.1989 344.849 -36.1015 342.27 -36.0292C338.771 -35.8545 334.164 -35.5065 330.879 -35.2243C330.513 -35.1263 321.819 -34.4875 311.53 -33.0295C294.032 -30.5471 280.561 -27.2675 279.075 -26.8899C273.935 -25.4508 271.011 -24.6674 268.222 -23.92Z" fill="white"/>
</svg>
